HIERARCHY
ROOT Hips
{
	OFFSET 0.00000 0.00000 0.00000
	CHANNELS 6 Xposition Yposition Zposition Zrotation Yrotation Xrotation 
	JOINT LHipJoint
	{
		OFFSET 0 0 0
		CHANNELS 3 Zrotation Yrotation Xrotation
		JOINT LeftHip
		{
			OFFSET 1.44361 -1.63093 0.70831
			CHANNELS 3 Zrotation Yrotation Xrotation
			JOINT LeftKnee
			{
				OFFSET 2.20103 -6.04728 0.00000
				CHANNELS 3 Zrotation Yrotation Xrotation
				JOINT LeftAnkle
				{
					OFFSET 2.54154 -6.98283 0.00000
					CHANNELS 3 Zrotation Yrotation Xrotation
					JOINT LeftToe
					{
						OFFSET 0.05971 -0.16406 1.77582
						CHANNELS 3 Zrotation Yrotation Xrotation
						End Site
						{
							OFFSET 0.00000 -0.00000 0.90832
						}
					}
				}
			}
		}
	}
	JOINT RHipJoint
	{
		OFFSET 0 0 0
		CHANNELS 3 Zrotation Yrotation Xrotation
		JOINT RightHip
		{
			OFFSET -1.65838 -1.63093 0.70830
			CHANNELS 3 Zrotation Yrotation Xrotation
			JOINT RightKnee
			{
				OFFSET -2.26926 -6.23475 0.00000
				CHANNELS 3 Zrotation Yrotation Xrotation
				JOINT RightAnkle
				{
					OFFSET -2.34808 -6.45129 0.00000
					CHANNELS 3 Zrotation Yrotation Xrotation
					JOINT RightToe
					{
						OFFSET -0.18633 -0.51195 1.68539
						CHANNELS 3 Zrotation Yrotation Xrotation
						End Site
						{
							OFFSET -0.00000 -0.00000 0.88927
						}
					}
				}
			}
		}
	}
	JOINT lowerback
	{
		OFFSET 0 0 0
		CHANNELS 3 Zrotation Yrotation Xrotation
		JOINT Chest
		{
			OFFSET -0.10393 2.01691 0.06920
			CHANNELS 3 Zrotation Yrotation Xrotation
			JOINT Chest2
			{
				OFFSET 0.04092 2.01302 -0.05283
				CHANNELS 3 Zrotation Yrotation Xrotation
				JOINT lowerneck
				{
					OFFSET 0 0 0
					CHANNELS 3 Zrotation Yrotation Xrotation
					JOINT Neck
					{
						OFFSET -0.02870 1.58978 -0.03113
						CHANNELS 3 Zrotation Yrotation Xrotation
						JOINT Head
						{
							OFFSET 0.11532 1.54326 -0.29195
							CHANNELS 3 Zrotation Yrotation Xrotation
							End Site
							{
								OFFSET 0.04056 1.59999 -0.09535
							}
						}
					}
				}
				JOINT LeftCollar
				{
					OFFSET 0 0 0
					CHANNELS 3 Zrotation Yrotation Xrotation
					JOINT LeftShoulder
					{
						OFFSET 3.30641 1.15764 0.01104
CHANNELS 3 Zrotation Xrotation Yrotation
						JOINT LeftElbow
						{
OFFSET 0 -4.632080 0.000000
CHANNELS 3 Zrotation Xrotation Yrotation
							JOINT LeftWrist
							{
OFFSET 0 -3.419240 -0.000000
CHANNELS 3 Zrotation Xrotation Yrotation
								JOINT lhand
								{
									OFFSET 0 0 0
CHANNELS 3 Zrotation Xrotation Yrotation
									JOINT LFingers
									{
OFFSET 0 -0.625370 -0.000000
CHANNELS 3 Zrotation Xrotation Yrotation
										End Site
										{
OFFSET 0 -0.504190 -0.000000
										}
									}
								}
								JOINT LThumb
								{
OFFSET 0 0.000000 0.000000
CHANNELS 3 Zrotation Xrotation Yrotation
									End Site
									{
OFFSET 0 -0.511890 0.511890
									}
								}
							}
						}
					}
				}
				JOINT RightCollar
				{
					OFFSET 0 0 0
					CHANNELS 3 Zrotation Yrotation Xrotation
					JOINT RightShoulder
					{
						OFFSET -3.78081 1.02180 -0.16609
CHANNELS 3 Zrotation Xrotation Yrotation
						JOINT RightElbow
						{
OFFSET 0 -4.406400 -0.000000
CHANNELS 3 Zrotation Xrotation Yrotation
							JOINT RightWrist
							{
OFFSET 0 -3.446750 0.000000
CHANNELS 3 Zrotation Xrotation Yrotation
								JOINT rhand
								{
									OFFSET 0 0 0
CHANNELS 3 Zrotation Xrotation Yrotation
									JOINT RFingers
									{
OFFSET 0 -0.513670 -0.000000
CHANNELS 3 Zrotation Xrotation Yrotation
										End Site
										{
OFFSET 0 -0.414140 -0.000000
										}
									}
								}
								JOINT RThumb
								{
OFFSET 0 0.000000 0.000000
CHANNELS 3 Zrotation Xrotation Yrotation
									End Site
									{
OFFSET 0 -0.420460 0.420460
									}
								}
							}
						}
					}
				}
			}
		}
	}
}
MOTION
Frames: 12
Frame Time: 0.008333333333333333
7.556615 21.901294 6.385094 179.000149 2.956281 -166.816401 0.000000 0.000000 0.000000 -18.082474 -16.836234 -33.507120 2.674354 10.146023 29.452869 1.406832 -8.695769 -21.240069 5.218359 -13.625528 -41.757720 0.000000 0.000000 0.000000 18.112612 6.980500 -22.896417 -9.743739 -17.257943 58.621036 0.156130 -7.986730 0.841074 -1.183563 6.885112 -19.383071 -10.131134 2.459252 2.603639 -1.466222 3.605455 4.285448 4.110925 1.684711 2.526018 -3.347155 0.147497 -7.948280 7.706358 -3.312714 26.118000 2.794577 -1.772470 9.706223 0.000000 0.000000 0.000000 4.236423 -5.079053 -20.579316 11.232386 -18.643479 1.849519 26.888511 11.705043 19.720089 0.000000 0.000000 0.000000 -7.125000 0.000000 0.000000 -0.943989 8.086796 -0.801504 0.000000 0.000000 0.000000 -0.058576 -0.247817 9.437013 -13.863622 -22.539404 -2.775688 -14.648540 22.000847 36.351331 0.000000 0.000000 0.000000 7.125000 0.000000 0.000000 25.001505 65.595909 -12.796415
7.527441 21.954057 6.201822 178.841053 3.099156 -167.112230 0.000000 0.000000 0.000000 -18.840812 -16.434378 -31.817972 2.507092 9.849232 28.491269 1.451966 -8.794357 -21.581636 5.234600 -13.643135 -41.826466 0.000000 0.000000 0.000000 17.567338 7.686258 -25.074686 -10.314659 -17.580873 60.532058 0.156942 -7.145563 -1.686842 -1.480895 7.676695 -21.742492 -10.309175 2.291582 2.764808 -1.470982 3.370728 4.314081 4.202875 1.566943 2.493928 -3.233542 0.350430 -8.192203 7.651109 -3.118686 26.532313 2.779622 -1.688323 9.887505 0.000000 0.000000 0.000000 4.201518 -5.370828 -21.022917 11.340758 -18.808511 1.884356 27.124973 11.796713 19.972397 0.000000 0.000000 0.000000 -7.125000 0.000000 0.000000 -0.821521 7.769680 -0.702970 0.000000 0.000000 0.000000 -0.089904 0.543263 8.154179 -13.791001 -22.435125 -2.747900 -15.351204 22.266966 36.022420 0.000000 0.000000 0.000000 7.125000 0.000000 0.000000 23.833402 65.503355 -12.114887
7.499358 22.005111 6.019170 178.690442 3.267457 -167.449866 0.000000 0.000000 0.000000 -19.582573 -15.996266 -30.115658 2.350547 9.560462 27.565231 1.504149 -8.880134 -21.970458 5.272726 -13.684453 -41.988060 0.000000 0.000000 0.000000 17.012999 8.452838 -27.208796 -10.774772 -17.822860 62.047710 0.113106 -6.159638 -3.842015 -1.792347 8.418804 -23.994094 -10.559292 2.058570 2.951118 -1.402349 3.044326 4.371681 4.413696 1.397740 2.486717 -3.220519 0.612311 -8.511413 7.540019 -2.806510 26.996384 2.776852 -1.563301 10.094741 0.000000 0.000000 0.000000 4.067550 -5.623736 -21.219646 11.481915 -19.023112 1.930148 27.245018 12.130087 19.939924 0.000000 0.000000 0.000000 -7.125000 0.000000 0.000000 -0.740998 7.783214 -0.633941 0.000000 0.000000 0.000000 -0.276061 1.271976 7.240268 -13.712099 -22.321507 -2.717792 -16.324057 22.471679 35.822581 0.000000 0.000000 0.000000 7.125000 0.000000 0.000000 22.513479 65.599450 -11.461818
7.472582 22.054475 5.840358 178.712619 3.359039 -167.693813 0.000000 0.000000 0.000000 -20.057242 -15.545252 -28.595961 2.208286 9.286207 26.695483 1.560248 -8.969827 -22.380321 5.365376 -13.783675 -42.377963 0.000000 0.000000 0.000000 16.623999 9.306733 -29.385834 -11.078760 -17.972924 63.036474 0.042468 -5.203893 -5.754902 -1.956046 8.772485 -25.087172 -10.605288 1.819798 3.057485 -1.289329 2.715696 4.439033 4.562775 1.226156 2.542323 -3.343806 0.760075 -8.585419 7.515706 -2.586793 27.083778 2.814553 -1.481821 10.126117 0.000000 0.000000 0.000000 3.960690 -5.928710 -21.475585 11.634361 -19.253916 1.980087 27.362145 12.543482 19.817294 0.000000 0.000000 0.000000 -7.125000 0.000000 0.000000 -0.651798 7.895659 -0.556157 0.000000 0.000000 0.000000 -0.410766 1.925047 6.185056 -13.618299 -22.186309 -2.682309 -16.464839 22.537471 36.381933 0.000000 0.000000 0.000000 7.125000 0.000000 0.000000 22.994390 66.142949 -12.004825
7.446432 22.100567 5.663286 178.748720 3.376620 -167.871624 0.000000 0.000000 0.000000 -20.491255 -15.120205 -27.169202 2.070411 9.009446 25.826223 1.610918 -9.068501 -22.745421 5.475918 -13.900161 -42.839641 0.000000 0.000000 0.000000 16.212791 10.099645 -31.571296 -11.227784 -18.044601 63.518990 -0.048080 -4.497095 -7.829366 -2.261344 9.381170 -27.002207 -10.518388 1.637903 3.089921 -1.240842 2.472972 4.484943 4.570672 1.102189 2.610252 -3.452822 0.808358 -8.470068 7.660143 -2.555249 27.030756 2.886366 -1.473577 10.083770 0.000000 0.000000 0.000000 3.941058 -6.317502 -21.971768 11.730906 -19.399789 2.012066 27.548958 12.714126 19.956280 0.000000 0.000000 0.000000 -7.125000 0.000000 0.000000 -0.549161 7.709382 -0.470368 0.000000 0.000000 0.000000 -0.348109 2.671054 4.860290 -13.557566 -22.098660 -2.659426 -16.203589 22.497794 37.108085 0.000000 0.000000 0.000000 7.125000 0.000000 0.000000 24.173342 66.712555 -12.969287
7.421378 22.143794 5.486269 178.616539 3.356516 -168.094469 0.000000 0.000000 0.000000 -21.149603 -14.671054 -25.659999 1.926752 8.709152 24.891428 1.650570 -9.194512 -23.030171 5.601115 -14.029792 -43.358011 0.000000 0.000000 0.000000 15.599117 10.753913 -33.668585 -11.248742 -18.054670 63.586843 -0.150438 -4.149677 -9.938999 -2.602977 10.013155 -29.028020 -10.584063 1.457335 3.162260 -1.236619 2.229760 4.516750 4.615280 0.978507 2.640651 -3.400960 0.869542 -8.377331 7.670977 -2.513663 27.053139 2.884304 -1.460236 10.070601 0.000000 0.000000 0.000000 3.947001 -6.588985 -22.619273 11.908067 -19.666290 2.071503 27.507912 12.739053 19.996584 0.000000 0.000000 0.000000 -7.125000 0.000000 0.000000 -0.580063 7.672922 -0.497357 0.000000 0.000000 0.000000 -0.228219 3.533920 3.517681 -13.528916 -22.057238 -2.648643 -16.121809 22.405871 37.449075 0.000000 0.000000 0.000000 7.125000 0.000000 0.000000 24.686745 66.991295 -13.408699
7.398053 22.183820 5.311201 178.375619 3.321219 -168.348025 0.000000 0.000000 0.000000 -21.927749 -14.205450 -24.132977 1.788079 8.408016 23.961485 1.685786 -9.343587 -23.281591 5.728486 -14.159557 -43.881244 0.000000 0.000000 0.000000 14.846891 11.336749 -35.690310 -11.155264 -18.009904 63.284446 -0.247968 -4.102834 -11.796315 -2.689057 10.168110 -29.528217 -10.785644 1.265170 3.283831 -1.243502 1.964955 4.537492 4.722546 0.843557 2.634464 -3.226804 0.952057 -8.332775 7.534889 -2.425807 27.121503 2.814358 -1.427054 10.078720 0.000000 0.000000 0.000000 3.978131 -6.738249 -23.381051 12.178519 -20.071209 2.163598 27.311363 12.594362 19.947870 0.000000 0.000000 0.000000 -7.125000 0.000000 0.000000 -0.699663 7.762232 -0.598724 0.000000 0.000000 0.000000 -0.095568 4.423789 2.144291 -13.468537 -21.969716 -2.626044 -16.360618 22.443018 37.236132 0.000000 0.000000 0.000000 7.125000 0.000000 0.000000 24.152116 66.872264 -13.044213
7.376946 22.219573 5.139637 178.141870 3.287280 -168.585220 0.000000 0.000000 0.000000 -22.644658 -13.745922 -22.697395 1.666038 8.131799 23.115591 1.725192 -9.494657 -23.559324 5.845785 -14.277081 -44.359291 0.000000 0.000000 0.000000 14.078627 11.936607 -37.675733 -10.959485 -17.914569 62.649215 -0.329856 -4.239249 -13.238753 -2.404687 9.658653 -27.881408 -11.011328 1.065233 3.418840 -1.236595 1.685040 4.548448 4.857683 0.700691 2.613643 -2.966135 0.595104 -8.301131 7.199516 -2.162967 27.223539 2.724644 -1.064093 10.094242 0.000000 0.000000 0.000000 4.033894 -6.855288 -24.231434 12.492360 -20.538664 2.272258 27.176334 12.249357 19.888641 0.000000 0.000000 0.000000 -7.125000 0.000000 0.000000 -0.778903 7.851589 -0.665317 0.000000 0.000000 0.000000 0.035176 5.232086 0.644596 -13.305227 -21.732424 -2.565391 -16.748861 22.768016 36.613460 0.000000 0.000000 0.000000 7.125000 0.000000 0.000000 22.943237 66.432763 -12.128781
7.358219 22.248650 4.970188 177.987452 3.264118 -168.770850 0.000000 0.000000 0.000000 -23.204092 -13.308871 -21.401767 1.560656 7.883746 22.361656 1.773324 -9.607184 -23.892061 5.948210 -14.377945 -44.773343 0.000000 0.000000 0.000000 13.373564 12.585981 -39.645950 -10.668310 -17.768858 61.699631 -0.403944 -4.451162 -14.472614 -2.130432 9.132073 -26.209676 -11.146772 0.870650 3.503605 -1.220167 1.414645 4.548694 4.953948 0.562783 2.610275 -2.520953 -1.593762 -8.235175 6.339625 -1.298723 27.541491 2.676183 0.605668 10.161594 0.000000 0.000000 0.000000 4.077427 -7.100713 -25.148986 12.749941 -20.919779 2.363265 27.379459 11.722284 19.806340 0.000000 0.000000 0.000000 -7.125000 0.000000 0.000000 -0.639516 7.904321 -0.545479 0.000000 0.000000 0.000000 0.158053 5.890578 -1.089725 -12.993764 -21.277961 -2.451056 -16.738922 23.407698 36.122282 0.000000 0.000000 0.000000 7.125000 0.000000 0.000000 22.380188 65.988239 -11.590045
7.340134 22.273792 4.796966 177.801718 3.207309 -168.978963 0.000000 0.000000 0.000000 -23.817649 -12.873668 -20.033227 1.454471 7.621801 21.571667 1.819609 -9.761227 -24.209139 6.042846 -14.469574 -45.153187 0.000000 0.000000 0.000000 12.628029 13.102539 -41.465524 -10.266722 -17.555694 60.374320 -0.493449 -4.567518 -15.718921 -2.182036 9.235130 -26.533813 -11.217815 0.746170 3.584757 -1.274244 1.234589 4.494096 4.938354 0.478275 2.538010 -2.210837 -1.651132 -8.080968 6.220667 -1.281970 27.709603 2.593193 0.677449 10.190242 0.000000 0.000000 0.000000 4.203749 -7.205371 -26.346384 13.088867 -21.416848 2.485992 26.441754 12.188770 18.871810 0.000000 0.000000 0.000000 -7.125000 0.000000 0.000000 -1.139884 9.085998 -0.942857 0.000000 0.000000 0.000000 0.462650 6.747813 -3.122442 -12.674833 -20.808481 -2.336802 -16.623388 24.500195 35.673662 0.000000 0.000000 0.000000 7.125000 0.000000 0.000000 22.009379 65.549335 -11.168869
7.323188 22.297844 4.622658 177.705801 3.159534 -169.164489 0.000000 0.000000 0.000000 -24.310691 -12.408162 -18.656089 1.344647 7.339308 20.725658 1.860920 -9.972788 -24.493079 6.144234 -14.566425 -45.557411 0.000000 0.000000 0.000000 11.978971 13.605070 -43.130680 -9.775133 -17.277740 58.729041 -0.583681 -4.484760 -16.751976 -2.206939 9.284466 -26.689308 -11.343828 0.471883 3.647906 -1.157668 0.866851 4.581412 5.137671 0.280853 2.658037 -2.142133 -1.468073 -8.655199 6.010948 -0.981714 28.155318 2.558427 0.810712 10.452768 0.000000 0.000000 0.000000 4.027582 -7.500304 -26.760974 13.483786 -21.990870 2.632420 25.432755 12.943898 18.099607 0.000000 0.000000 0.000000 -7.125000 0.000000 0.000000 -1.717632 10.088136 -1.386966 0.000000 0.000000 0.000000 0.370679 7.222731 -4.745838 -12.269942 -20.207165 -2.195452 -16.852342 26.020940 34.962093 0.000000 0.000000 0.000000 7.125000 0.000000 0.000000 20.994430 64.962770 -10.354841
7.309894 22.319220 4.449684 177.726260 3.107943 -169.312416 0.000000 0.000000 0.000000 -24.608908 -11.926396 -17.361812 1.240634 7.060684 19.896290 1.894835 -10.165690 -24.725490 6.224362 -14.642212 -45.875388 0.000000 0.000000 0.000000 11.469540 14.122275 -44.663287 -9.204685 -16.931823 56.786809 -0.655043 -4.343125 -17.477538 -2.229759 9.329071 -26.830327 -11.386867 0.189495 3.686859 -0.990753 0.491354 4.693751 5.343688 0.076705 2.820064 -2.735754 -1.349167 -8.602731 6.396503 -0.843135 27.963986 2.805278 0.837259 10.367826 0.000000 0.000000 0.000000 3.809539 -7.818085 -27.039335 13.904120 -22.596268 2.791938 26.066988 12.668926 18.178326 0.000000 0.000000 0.000000 -7.125000 0.000000 0.000000 -1.314441 9.895702 -1.058960 0.000000 0.000000 0.000000 0.252970 7.616733 -6.417081 -11.838519 -19.560929 -2.048761 -17.047885 27.711022 34.541277 0.000000 0.000000 0.000000 7.125000 0.000000 0.000000 20.332976 64.631523 -9.853602
